<svg width="170" height="50" viewBox="0 0 130 33" fill="none" xmlns="http://www.w3.org/2000/svg">
<path d="M0.543771 1.37263C0.451656 1.05302 0.691552 0.7343 1.02418 0.73453C2.79059 0.735753 4.5564 0.740764 6.32287 0.732169C6.55691 0.73103 6.76064 0.8921 6.81302 1.12021C7.75716 5.23155 8.65914 9.35247 9.59246 13.4663C9.60271 13.5053 9.61247 13.5445 9.62185 13.5837C9.72873 14.0311 10.2488 14.0696 10.4209 13.643C12.11 9.45336 13.7539 5.24403 15.4308 1.04922C15.5068 0.859061 15.6912 0.734578 15.896 0.734906C17.5885 0.737611 19.281 0.734527 20.9729 0.736308C21.3373 0.736691 21.5785 1.11441 21.4259 1.44533C18.5419 7.70126 15.6718 13.9637 12.7898 20.2212V20.2212C12.722 20.3594 12.5818 20.448 12.4279 20.4478C10.4283 20.4448 8.42784 20.4513 6.42818 20.4452C6.20589 20.4446 6.01088 20.297 5.94951 20.0834C4.15723 13.8436 2.34151 7.61034 0.543771 1.37263Z" fill="#E02424"/>
<path d="M76.3162 2.34044C76.366 2.11255 76.5675 1.95009 76.8007 1.94894C78.1779 1.94214 79.555 1.94057 80.9315 1.94814C81.2483 1.94988 81.4831 2.2426 81.4163 2.55231C81.2357 3.3896 81.0528 4.22633 80.8654 5.06251C80.8141 5.29121 80.6105 5.45321 80.3761 5.4526C79.0036 5.44906 77.6317 5.45317 76.2592 5.45174C75.9366 5.4514 75.6991 5.14988 75.7708 4.83537C75.9599 4.00507 76.1343 3.17199 76.3162 2.34044Z" fill="#E02424"/>
<path d="M112.909 7.00986C112.595 7.01033 112.359 6.723 112.423 6.41508C112.691 5.12418 112.996 3.84107 113.263 2.5501C113.313 2.31325 113.523 2.14419 113.765 2.14752C115.161 2.16673 116.558 2.15126 117.955 2.15268C118.279 2.153 118.516 2.45824 118.455 2.7766C118.453 2.79054 118.45 2.80449 118.447 2.81844C118.202 3.97385 117.937 5.1271 117.691 6.28251C117.383 7.63264 116.808 8.96878 115.79 9.93593C114.931 10.7252 113.907 11.3264 112.829 11.7682C112.563 11.8772 112.266 11.7264 112.182 11.4515C112.06 11.0521 111.934 10.6541 111.805 10.2574C111.727 10.0162 111.84 9.75468 112.07 9.64707C112.887 9.2639 113.716 8.83828 114.254 8.09416C114.37 7.9443 114.471 7.78356 114.557 7.61481C114.704 7.32388 114.469 7.01083 114.143 7.00951C113.732 7.00785 113.32 7.00924 112.909 7.00986Z" fill="#E02424"/>
<path d="M24.4109 7.08104C25.8697 6.89492 27.3715 6.9315 28.8077 7.26607C30.1127 7.55008 31.3186 8.40427 31.8748 9.63821C32.5774 11.1896 32.3456 12.9325 32.0021 14.5527C31.9535 14.7817 31.7503 14.9441 31.5161 14.9442C28.4853 14.9452 25.4537 14.9461 22.4228 14.9443C22.1778 14.9442 21.9646 15.1217 21.9535 15.3664C21.9246 16.0078 22.0747 16.6847 22.581 17.1075C23.2179 17.6615 24.1613 17.6551 24.9219 17.3915C25.4492 17.2382 25.8782 16.8924 26.28 16.5323C26.3844 16.4387 26.5226 16.3917 26.6623 16.4044C27.8783 16.5151 29.0938 16.631 30.3091 16.7464C30.7036 16.7839 30.8968 17.2412 30.6293 17.5335C29.6027 18.6552 28.3487 19.5923 26.8767 20.0165C25.3436 20.4586 23.7289 20.5027 22.1453 20.4274C20.8941 20.351 19.5612 20.1047 18.5919 19.2462C17.4903 18.264 16.9621 16.7428 17.0245 15.2862C17.0998 13.3045 17.8313 11.3272 19.1632 9.84369C20.5025 8.32681 22.4056 7.33923 24.4109 7.08104ZM23.9537 10.4311C23.4087 10.7995 23.0269 11.3437 22.7638 11.9392C22.6283 12.246 22.8696 12.5709 23.2049 12.5712C24.4495 12.5724 25.694 12.5759 26.9386 12.5694C27.1972 12.568 27.4148 12.3694 27.4257 12.111C27.4403 11.769 27.4296 11.4257 27.35 11.0916C27.222 10.5978 26.8347 10.1804 26.3495 10.0212C25.547 9.7458 24.6293 9.93514 23.9537 10.4311Z" fill="#E02424"/>
<path d="M41.4269 7.21047C42.4643 6.80575 43.6545 6.93131 44.6403 7.43193C44.8865 7.55693 44.9477 7.87003 44.795 8.10007C44.1741 9.03599 43.5583 9.97548 42.9515 10.9201C42.8224 11.1211 42.5704 11.2006 42.3465 11.1173C41.9159 10.9571 41.4647 10.8314 41.0084 10.9306C40.4339 11.0145 39.9358 11.376 39.5743 11.8171C38.9708 12.5702 38.6405 13.4932 38.349 14.4023C37.8185 16.2669 37.486 18.1804 37.044 20.0682C36.9894 20.3011 36.7758 20.4603 36.5367 20.4534C35.4432 20.4219 34.3464 20.4593 33.2529 20.444C32.8854 20.4293 32.5123 20.4721 32.1465 20.4358C31.9967 20.4209 31.9054 20.2731 31.9404 20.1266V20.1266C32.8625 15.975 33.7695 11.8193 34.675 7.66447C34.7248 7.43612 34.9261 7.27264 35.1598 7.27137C36.4412 7.2644 37.7238 7.26917 39.006 7.26969C39.2634 7.26979 39.4532 7.51012 39.3949 7.7609V7.7609C39.3007 8.16657 39.8116 8.39991 40.1067 8.10607C40.487 7.72752 40.915 7.40557 41.4269 7.21047Z" fill="#E02424"/>
<path d="M50.3055 7.04911C52.0193 6.87268 53.8503 6.95121 55.4027 7.77314C56.6109 8.41002 57.4575 9.63645 57.691 10.9748C57.9298 12.3303 57.6824 13.7299 57.2047 15.0069C56.5033 16.8541 55.0918 18.3947 53.3759 19.3532C51.4943 20.3914 49.2641 20.6248 47.1587 20.3591C45.7914 20.1719 44.4165 19.5608 43.5773 18.428C42.7834 17.4329 42.4692 16.115 42.5854 14.8595C42.7414 12.8951 43.5902 10.978 45.0082 9.59772C46.4078 8.16688 48.3152 7.25459 50.3055 7.04911ZM50.1828 10.4863C48.9048 10.879 48.1097 12.1173 47.8074 13.3609C47.6138 14.1344 47.4438 14.9542 47.631 15.746C47.7676 16.37 48.2679 16.9176 48.8983 17.0585C49.6826 17.2586 50.5293 16.9929 51.1446 16.4894C51.76 16.016 52.1355 15.3038 52.3754 14.5787C52.6561 13.7321 52.8498 12.8305 52.7347 11.9365C52.6648 11.3491 52.2893 10.8037 51.7589 10.5412C51.263 10.3185 50.696 10.3336 50.1828 10.4863Z" fill="#E02424"/>
<path d="M68.0786 7.09574C69.249 6.90532 70.5335 6.86551 71.6072 7.44322C72.3215 7.83912 72.8411 8.56745 72.9616 9.37861C73.1542 10.4533 72.9573 11.5507 72.7088 12.5996C72.1779 15.0865 71.6034 17.5647 71.0874 20.0545C71.039 20.288 70.833 20.4554 70.5945 20.4541C69.2394 20.4469 67.8844 20.4394 66.5299 20.4548C66.2059 20.4584 65.9623 20.1591 66.0331 19.8429C66.5349 17.6017 67.0191 15.3573 67.5105 13.1138C67.6117 12.5609 67.7203 11.924 67.3922 11.4237C67.1168 11.0289 66.6026 10.9192 66.1497 10.9418C65.3148 10.9611 64.5499 11.499 64.1573 12.2198C63.7248 12.9568 63.5495 13.8045 63.3677 14.6286C62.9705 16.4417 62.579 18.2568 62.1739 20.0685C62.1224 20.299 61.9164 20.4617 61.6802 20.459C60.3467 20.4438 59.011 20.4352 57.6779 20.4573C57.3557 20.4627 57.1104 20.1683 57.1768 19.8529C58.0332 15.7854 58.9572 11.7314 59.8317 7.66708C59.8813 7.43672 60.0848 7.27206 60.3204 7.27183C61.5578 7.27064 62.7946 7.26831 64.0319 7.2727C64.3448 7.27381 64.5774 7.55889 64.5064 7.86362C64.4952 7.91158 64.4839 7.95952 64.4727 8.00747C64.3657 8.46175 64.8773 8.74136 65.2461 8.45526C66.0853 7.80406 67.0203 7.27975 68.0786 7.09574Z" fill="#E02424"/>
<path d="M84.8221 7.70304C86.5616 6.97042 88.5024 6.89081 90.3625 7.03712C91.6782 7.15868 93.0961 7.49649 94.017 8.51527C94.6345 9.17646 94.9559 10.0373 95.1144 10.9164C95.1623 11.182 94.9735 11.4273 94.7064 11.4659C93.4502 11.6471 92.1894 11.7985 90.9304 11.9571C90.6371 11.9941 90.3808 11.7659 90.2903 11.4845C90.1625 11.0874 89.903 10.7352 89.5072 10.569C88.1549 10.002 86.5175 10.6228 85.7247 11.8191C85.1964 12.5915 84.921 13.5092 84.7801 14.4257C84.6844 15.1487 84.7328 15.9717 85.2675 16.5257C85.8925 17.2207 86.9479 17.2659 87.7913 17.0131C88.6348 16.7782 89.2808 16.1406 89.7389 15.4139C89.8474 15.2418 90.0417 15.1394 90.2439 15.1627C91.4335 15.2996 92.6258 15.4272 93.8142 15.5791C94.1515 15.6222 94.3447 15.984 94.1737 16.2779C93.3812 17.6401 92.2346 18.8042 90.8218 19.5186C89.4674 20.2373 87.9139 20.4782 86.3938 20.4599C84.9576 20.4513 83.4558 20.3857 82.1465 19.7305C80.635 18.9818 79.6646 17.2917 79.741 15.6113C79.7851 14.3225 80.0831 13.0412 80.5855 11.8546C81.3859 9.98267 82.9964 8.54755 84.8221 7.70304Z" fill="#E02424"/>
<path d="M102.517 7.07713C104.129 6.89855 105.757 6.96095 107.367 7.12554C108.424 7.25679 109.568 7.62794 110.178 8.56604C110.694 9.44928 110.718 10.5337 110.581 11.5223C110.126 13.675 109.63 15.8191 109.181 17.9729C109.068 18.4807 109.072 19.0017 109.158 19.5105C109.213 19.8409 108.975 20.165 108.64 20.1655C107.425 20.1673 106.21 20.1671 104.996 20.1649C104.79 20.1646 104.602 20.0397 104.551 19.841C104.54 19.7946 104.529 19.7479 104.519 19.701C104.434 19.2841 103.939 19.0096 103.583 19.2418C103.203 19.4892 102.809 19.7139 102.386 19.8813C101.032 20.4203 99.5435 20.5429 98.1041 20.4095C97.1703 20.3116 96.1805 19.9652 95.6179 19.1713C95.1703 18.5871 95.0326 17.8201 95.1294 17.1025C95.2962 15.733 96.1267 14.4335 97.365 13.7987C98.8625 13.0102 100.577 12.8768 102.202 12.5056C103.31 12.3021 104.402 12.0198 105.469 11.6555C105.626 11.6021 105.747 11.4735 105.778 11.3112C105.848 10.951 105.856 10.5635 105.624 10.266C105.609 10.247 105.592 10.2296 105.574 10.2144C105.233 9.93452 104.755 9.91603 104.334 9.9108C103.683 9.93016 102.996 9.99363 102.43 10.3443C102.088 10.5497 101.848 10.867 101.629 11.1932C101.524 11.35 101.341 11.4362 101.153 11.4146C99.943 11.2753 98.7304 11.1566 97.5201 11.0176C97.1839 10.9789 96.9839 10.6224 97.1421 10.3232C97.5141 9.61957 97.975 8.95731 98.6151 8.47352C99.7156 7.57953 101.13 7.21161 102.517 7.07713ZM102.71 14.7487C102.079 14.9337 101.413 15.0843 100.868 15.4684C100.426 15.789 100.122 16.3387 100.21 16.8938C100.274 17.2865 100.615 17.5888 100.999 17.6566C102.142 17.876 103.331 17.4091 104.153 16.6163C104.62 16.1355 104.857 15.5131 105.013 14.8715C105.101 14.5059 104.746 14.1967 104.385 14.3029C103.831 14.466 103.272 14.6154 102.71 14.7487Z" fill="#E02424"/>
<path d="M121.999 7.09254C123.46 6.92042 124.941 6.93333 126.402 7.10223C127.348 7.22057 128.319 7.58526 128.93 8.35016C129.299 8.78651 129.501 9.32033 129.647 9.86681C129.724 10.1537 129.52 10.4361 129.225 10.4684C127.96 10.6064 126.693 10.7292 125.425 10.834C125.174 10.8548 124.959 10.6802 124.873 10.4432C124.804 10.2533 124.702 10.0791 124.531 9.95848C123.956 9.53677 123.186 9.52386 122.512 9.65941C121.964 9.76807 121.441 10.1758 121.374 10.76C121.376 11.1817 121.804 11.3882 122.156 11.4786C123.344 11.783 124.583 11.7927 125.775 12.08C126.737 12.2844 127.761 12.5974 128.419 13.3752C129.119 14.1821 129.211 15.3644 128.886 16.3509C128.43 17.7226 127.378 18.8694 126.084 19.5019C124.702 20.241 123.109 20.4379 121.564 20.4562C120.244 20.4594 118.9 20.4379 117.626 20.0527C116.928 19.8516 116.265 19.4632 115.831 18.8704C115.426 18.3522 115.228 17.715 115.147 17.0688C115.115 16.8084 115.31 16.5809 115.571 16.5527C116.928 16.4058 118.289 16.3061 119.647 16.1724C119.918 16.1458 120.155 16.3413 120.236 16.6012C120.355 16.9857 120.572 17.3401 120.944 17.5225C121.674 17.8635 122.534 17.8151 123.281 17.5558C123.786 17.3568 124.341 16.9577 124.341 16.3584C124.373 15.9486 123.977 15.6828 123.627 15.5892C122.39 15.2299 121.103 15.1019 119.858 14.7781C119.133 14.5909 118.364 14.4231 117.781 13.9217C117.163 13.3774 116.779 12.5598 116.805 11.7314C116.839 10.534 117.418 9.37325 118.331 8.60297C119.344 7.70575 120.676 7.26037 121.999 7.09254Z" fill="#E02424"/>
<path d="M75.1959 7.45752C75.2466 7.22891 75.4492 7.06613 75.6833 7.06598C77.0548 7.06511 78.4262 7.06816 79.7977 7.06572C80.1175 7.06516 80.356 7.36044 80.2878 7.67285C79.3853 11.8049 78.4825 15.9368 77.5707 20.066C77.5195 20.2979 77.3121 20.4617 77.0746 20.4586C75.7068 20.441 74.3384 20.4426 72.9705 20.4555C72.6485 20.4586 72.4068 20.1614 72.4762 19.8469C73.3868 15.7184 74.2809 11.5858 75.1959 7.45752Z" fill="#E02424"/>
<path d="M38.6842 24.4189C39.5911 24.4673 40.5023 24.4253 41.4114 24.4393C70.855 24.4415 100.299 24.4339 129.743 24.4426C129.741 27.1589 129.743 29.8743 129.742 32.5906C98.006 32.5971 66.2688 32.5949 34.5327 32.5917C35.913 29.8656 37.2932 27.1396 38.6842 24.4189ZM63.1834 25.3613C62.7972 25.5743 62.8833 26.323 63.3588 26.3564C63.7127 26.4102 63.9602 26.0175 63.8666 25.7002C63.8375 25.3882 63.4513 25.2064 63.1834 25.3613ZM76.5266 25.3591C76.1232 25.5678 76.2114 26.308 76.6837 26.3532C77.0344 26.4263 77.2689 26.0444 77.2001 25.7346C77.2022 25.4043 76.802 25.1999 76.5266 25.3591ZM43.0025 26.9298C43.4221 28.2089 43.9105 29.4644 44.33 30.7435C44.6431 30.765 44.9583 30.7661 45.2724 30.7413C45.6812 29.4622 46.1686 28.21 46.5785 26.9319C46.2891 26.9287 46.0008 26.9276 45.7124 26.9276C45.4144 27.8851 45.1111 28.8415 44.8292 29.8033C44.5075 28.8544 44.2106 27.8969 43.9212 26.9373C43.6146 26.9266 43.308 26.9255 43.0025 26.9298ZM47.8124 27.0632C46.5591 27.6861 46.4666 29.7193 47.5919 30.5111C48.3514 31.0189 49.4788 30.8791 50.0823 30.1905C50.0662 29.9603 49.7886 29.8043 49.6617 29.615C49.3519 29.9076 48.9259 30.1142 48.4912 30.013C48.0706 29.956 47.8049 29.5655 47.6962 29.1857C48.5676 29.1696 49.4412 29.1965 50.3126 29.1707C50.3201 28.5543 50.2932 27.869 49.8597 27.3838C49.3583 26.8211 48.4697 26.776 47.8124 27.0632ZM51.2281 26.9287C51.2281 28.2046 51.2281 29.4816 51.2281 30.7575C51.5175 30.7596 51.8068 30.7586 52.0984 30.7543C52.1124 30.0496 52.0618 29.3428 52.1253 28.6403C52.2017 28.0852 52.7579 27.7571 53.2882 27.7915C53.2882 27.4849 53.2882 27.1783 53.2861 26.8728C52.7869 26.8792 52.3501 27.16 52.093 27.5785C52.0952 27.3612 52.0952 27.1439 52.093 26.9276C51.8036 26.9287 51.5153 26.9287 51.2281 26.9287ZM55.2914 26.9169C54.7642 26.9825 54.2694 27.2966 54.0133 27.7657C53.626 28.4843 53.6508 29.4289 54.1263 30.1013C54.803 31.0501 56.4113 31.0523 57.0976 30.1131C57.613 29.3783 57.6172 28.3111 57.0933 27.5796C56.6921 27.0234 55.9487 26.8082 55.2914 26.9169ZM58.4004 26.9276C58.3918 28.2046 58.3961 29.4816 58.3983 30.7586C58.6823 30.7586 58.9663 30.7586 59.2514 30.7586C59.2568 30.1905 59.2439 29.6236 59.2557 29.0556C59.2751 28.6855 59.3084 28.2659 59.6043 28.0024C60.0045 27.6162 60.8102 27.7614 60.9221 28.3499C60.9877 29.1492 60.9307 29.956 60.9512 30.7586C61.2416 30.7586 61.5332 30.7586 61.8258 30.7575C61.8193 29.9001 61.8344 29.0437 61.8193 28.1863C61.8139 27.7818 61.6429 27.3719 61.3159 27.1234C60.6607 26.663 59.6849 26.8911 59.2546 27.557C59.2514 27.3461 59.2514 27.1374 59.2503 26.9276C58.9663 26.9287 58.6834 26.9287 58.4004 26.9276ZM62.9898 26.9223C62.9704 28.2014 62.9823 29.4805 62.9833 30.7596C63.2706 30.7586 63.5589 30.7575 63.8483 30.7564C63.8461 29.4805 63.8461 28.2057 63.8472 26.9298C63.5611 26.9298 63.2749 26.9287 62.9898 26.9223ZM65.6277 27.132C64.6336 27.7453 64.5088 29.2471 65.1575 30.1529C65.8504 31.0931 67.478 31.0168 68.0913 30.0249C67.9105 29.8624 67.7309 29.7011 67.5512 29.5397C67.1521 30.0701 66.2194 30.183 65.8364 29.5806C65.5298 29.0642 65.5653 28.2735 66.0687 27.8905C66.5335 27.5656 67.1682 27.7582 67.5297 28.1498C67.705 27.9593 67.8815 27.77 68.0547 27.5764C67.4866 26.8674 66.4087 26.6867 65.6277 27.132ZM68.7873 27.3429C68.8766 27.5602 68.9723 27.7754 69.0724 27.9895C69.5393 27.7937 70.0664 27.5236 70.5753 27.7453C70.8679 27.8507 70.9303 28.1863 70.955 28.4585C70.358 28.5058 69.7146 28.3412 69.1563 28.6145C68.4086 28.9534 68.3903 30.1335 69.0358 30.5843C69.6124 30.9856 70.4612 30.8651 70.9421 30.3637C70.94 30.4616 70.9357 30.6574 70.9346 30.7553C71.2272 30.7629 71.522 30.7618 71.8157 30.7413C71.7985 29.8581 71.8006 28.9738 71.7823 28.0906C71.7673 27.614 71.4703 27.1525 71.011 26.9954C70.2654 26.7415 69.4425 26.9406 68.7873 27.3429ZM73.2895 27.0449C72.6838 27.3321 72.5418 28.2208 72.9431 28.7264C73.3186 29.147 73.9296 29.1621 74.3933 29.4386C74.5998 29.5709 74.5762 29.97 74.3158 30.0313C73.7855 30.1819 73.254 29.9065 72.828 29.6107C72.7323 29.8334 72.6311 30.0539 72.5311 30.2734C73.1626 30.8156 74.1469 31.0092 74.8903 30.5864C75.5552 30.2131 75.5756 29.076 74.8935 28.7113C74.5019 28.4553 73.9985 28.4413 73.6252 28.1562C73.4229 27.9981 73.5692 27.6882 73.7919 27.6506C74.233 27.5344 74.6547 27.7883 75.0452 27.9626C75.1507 27.7377 75.2561 27.5129 75.3647 27.2891C74.773 26.8771 73.9554 26.7329 73.2895 27.0449ZM76.3061 26.9309C76.3071 28.2057 76.3082 29.4805 76.305 30.7564C76.5933 30.7575 76.8816 30.7586 77.1699 30.7607C77.1861 29.488 77.1613 28.2154 77.1839 26.9416C76.8902 26.9266 76.5976 26.9244 76.3061 26.9309ZM78.4308 26.9287C78.4297 28.2057 78.4297 29.4816 78.4308 30.7586C78.7148 30.7586 78.9999 30.7586 79.286 30.7586C79.2968 30.0797 79.2667 29.3998 79.3 28.721C79.3108 28.2283 79.7217 27.7345 80.2467 27.7926C80.6426 27.7711 80.9611 28.139 80.9664 28.5198C80.9847 29.2654 80.9654 30.012 80.974 30.7586C81.2634 30.7586 81.5538 30.7586 81.8443 30.7586C81.8443 29.9399 81.8464 29.1212 81.8454 28.3025C81.854 27.8345 81.67 27.3354 81.2634 27.074C80.6093 26.691 79.6809 26.8997 79.2914 27.5624C79.2882 27.3504 79.2839 27.1385 79.2785 26.9266C78.9956 26.9287 78.7126 26.9287 78.4308 26.9287ZM83.2966 27.0686C82.6716 27.4096 82.5661 28.4262 83.1417 28.8609C83.5258 29.1718 84.0594 29.1836 84.4639 29.4568C84.6865 29.6171 84.6166 29.9969 84.3369 30.0432C83.8195 30.1604 83.2966 29.9194 82.8953 29.6085C82.7738 29.8345 82.6619 30.0657 82.6092 30.3186C83.2579 30.7951 84.182 31.0081 84.9168 30.6004C85.5418 30.2648 85.6462 29.2836 85.1029 28.8275C84.7188 28.4972 84.1863 28.4639 83.7571 28.2197C83.5236 28.1261 83.5484 27.7184 83.799 27.6667C84.2498 27.5021 84.6833 27.799 85.0932 27.9529C85.2266 27.7377 85.3159 27.4989 85.3955 27.259C84.7758 26.8868 83.9625 26.72 83.2966 27.0686ZM86.2432 26.9298C86.2336 27.742 86.2368 28.5553 86.2389 29.3686C86.2486 29.8925 86.4627 30.4907 86.9845 30.7037C87.6203 30.9888 88.3938 30.7231 88.7638 30.1443C88.7617 30.3487 88.7606 30.5531 88.7628 30.7586C89.05 30.7596 89.3394 30.7586 89.6277 30.751C89.6159 29.4762 89.6449 28.2014 89.6126 26.9276C89.3286 26.9287 89.0457 26.9287 88.7628 26.9287C88.7585 27.5279 88.7681 28.1282 88.7617 28.7285C88.7466 29.1169 88.653 29.572 88.2948 29.7903C87.8946 30.0571 87.2416 29.8646 87.1641 29.3568C87.0727 28.5499 87.1706 27.7377 87.1136 26.9276C86.8231 26.9287 86.5326 26.9287 86.2432 26.9298ZM90.881 26.9276C90.8746 28.2046 90.8789 29.4816 90.8789 30.7586C91.164 30.7586 91.449 30.7586 91.7352 30.7586C91.7599 30.0453 91.6836 29.3245 91.7772 28.6156C91.8578 28.0841 92.3979 27.7517 92.9143 27.8023C92.9207 27.5107 93.0864 27.0965 92.8433 26.8792C92.3807 26.8975 92.0085 27.1955 91.7406 27.5495C91.7352 27.3418 91.7352 27.1353 91.7341 26.9287C91.449 26.9287 91.165 26.9287 90.881 26.9276ZM93.5038 27.387C93.6092 27.585 93.7093 27.7861 93.804 27.9905C94.2719 27.7894 94.8066 27.5183 95.3165 27.7528C95.5941 27.8668 95.6683 28.1885 95.6726 28.4596C95.0583 28.5058 94.3881 28.3305 93.8233 28.6457C93.1251 29.0255 93.1348 30.1561 93.7706 30.5907C94.3483 30.9877 95.2014 30.8651 95.6716 30.3498C95.6726 30.452 95.6748 30.6553 95.6759 30.7575C95.9588 30.7586 96.2417 30.7586 96.5268 30.7575C96.5204 29.9055 96.5365 29.0523 96.5193 28.2003C96.5204 27.6925 96.2396 27.1719 95.7436 26.9986C94.9949 26.7534 94.1278 26.9083 93.5038 27.387ZM97.6908 26.9276C97.6607 28.2025 97.6575 29.4784 97.6693 30.7543C97.9587 30.7586 98.2481 30.7586 98.5386 30.7586C98.5493 30.0787 98.5235 29.3977 98.5493 28.7188C98.5601 28.2229 98.9797 27.727 99.5068 27.7926C99.8995 27.7754 100.207 28.1422 100.216 28.5177C100.242 29.2643 100.217 30.0109 100.226 30.7586C100.515 30.7586 100.804 30.7586 101.094 30.7575C101.094 29.9377 101.095 29.1169 101.095 28.2971C101.099 27.8324 100.92 27.3332 100.515 27.074C99.865 26.6953 98.9237 26.89 98.5472 27.5634C98.5429 27.3515 98.5386 27.1396 98.5353 26.9287C98.2524 26.9287 97.9716 26.9287 97.6908 26.9276ZM102.315 27.5559C101.785 28.295 101.783 29.3815 102.298 30.1292C102.981 31.0931 104.617 31.0221 105.247 30.0367C105.072 29.8646 104.894 29.6924 104.681 29.5698C104.317 30.0184 103.549 30.1647 103.12 29.7301C102.644 29.2245 102.676 28.2713 103.266 27.8647C103.724 27.572 104.329 27.77 104.677 28.1433C104.842 27.9561 105.087 27.8076 105.176 27.5699C104.528 26.6705 102.973 26.6555 102.315 27.5559ZM105.998 27.7011C105.571 28.4316 105.589 29.4246 106.073 30.1249C106.726 31.0264 108.223 31.035 108.94 30.211C108.99 29.97 108.668 29.8033 108.547 29.6139C108.21 29.9453 107.71 30.1421 107.245 29.9797C106.885 29.8753 106.677 29.5257 106.59 29.1836C107.462 29.1761 108.335 29.1857 109.207 29.1782C109.216 28.5499 109.164 27.8507 108.724 27.3601C107.985 26.6028 106.529 26.776 105.998 27.7011ZM111.821 27.6108C111.242 28.4876 111.344 29.8678 112.232 30.509C113.008 31.0447 114.302 30.8801 114.766 30.0184C114.612 29.8409 114.427 29.6957 114.251 29.5429C113.913 29.9614 113.267 30.1389 112.798 29.8441C112.193 29.4041 112.184 28.3574 112.765 27.8948C113.228 27.5645 113.86 27.756 114.227 28.1411C114.412 27.9593 114.592 27.7711 114.757 27.5699C114.047 26.6759 112.479 26.6404 111.821 27.6108ZM116.546 26.9653C115.188 27.3052 114.861 29.2008 115.694 30.1948C116.415 31.0598 117.961 31.0189 118.609 30.0851C119.126 29.3213 119.108 28.1917 118.503 27.4806C118.032 26.9266 117.224 26.7824 116.546 26.9653ZM119.893 26.9255C119.884 28.2035 119.889 29.4816 119.891 30.7596C120.184 30.7586 120.477 30.7575 120.772 30.7575C120.775 30.0808 120.761 29.4041 120.776 28.7285C120.784 28.2552 121.156 27.7571 121.665 27.7861C122.024 27.7539 122.348 28.0572 122.378 28.409C122.428 29.19 122.369 29.9743 122.41 30.7564C122.698 30.7586 122.988 30.7575 123.279 30.7553C123.308 30.0776 123.272 29.3988 123.297 28.7221C123.301 28.5015 123.379 28.2875 123.51 28.1121C123.752 27.7635 124.289 27.6753 124.632 27.9249C124.83 28.0949 124.93 28.3638 124.922 28.6242C124.923 29.3342 124.919 30.0453 124.92 30.7575C125.212 30.7586 125.504 30.7586 125.797 30.7596C125.799 29.9399 125.802 29.1201 125.798 28.3014C125.796 27.8722 125.651 27.4139 125.31 27.1353C124.635 26.6318 123.501 26.9029 123.225 27.7323C123.047 27.3945 122.808 27.0363 122.413 26.9449C121.807 26.762 121.123 26.9922 120.767 27.5172C120.768 27.3203 120.77 27.1256 120.772 26.9298C120.478 26.9287 120.186 26.9287 119.893 26.9255ZM110.079 29.8581C109.726 30.0851 109.822 30.7876 110.266 30.8328C110.603 30.9059 110.84 30.5283 110.783 30.2293C110.785 29.8925 110.354 29.6387 110.079 29.8581Z" fill="#E02424"/>
<path d="M47.6831 28.5376C47.7595 28.032 48.1877 27.5435 48.7385 27.6296C49.2054 27.664 49.5034 28.0976 49.5281 28.5376C48.9127 28.5397 48.2985 28.5408 47.6831 28.5376Z" fill="#E02424"/>
<path d="M106.556 28.5374C106.627 28.0092 107.112 27.5057 107.676 27.6424C108.114 27.7015 108.376 28.1254 108.402 28.5396C107.787 28.5396 107.172 28.5428 106.556 28.5374Z" fill="#E02424"/>
<path d="M55.223 27.7965C55.5866 27.6083 56.0697 27.7083 56.3332 28.0203C56.7281 28.4947 56.7194 29.2618 56.3063 29.7222C56.0363 30.0277 55.5565 30.0772 55.2004 29.9105C54.4452 29.4888 54.4463 28.1924 55.223 27.7965Z" fill="#E02424"/>
<path d="M116.664 27.8178C117.114 27.5574 117.753 27.7511 117.964 28.2309C118.197 28.7354 118.156 29.4368 117.7 29.8069C117.267 30.1727 116.506 30.0135 116.278 29.4863C116.004 28.9409 116.104 28.1416 116.664 27.8178Z" fill="#E02424"/>
<path d="M69.6615 29.9819C69.3409 29.7958 69.3474 29.2299 69.7379 29.131C70.1467 29.0664 70.563 29.1094 70.9761 29.1008C71.1321 29.8184 70.2457 30.3122 69.6615 29.9819Z" fill="#E02424"/>
<path d="M94.203 29.2423C94.6538 28.9959 95.1842 29.1293 95.6748 29.0992C95.8544 29.8372 94.883 30.3417 94.3149 29.9458C94.0826 29.7834 94.1514 29.4757 94.203 29.2423Z" fill="#E02424"/>
<path opacity="0.25" d="M114.037 2.15287C113.889 2.15127 113.881 2.07719 114.029 2.07719V2.07719C115.532 2.08877 117.034 2.07356 118.537 2.084C118.591 2.08438 118.635 2.12855 118.632 2.18291C118.631 2.2148 118.628 2.24656 118.624 2.27816C118.613 2.37534 118.552 2.35723 118.575 2.26205V2.26205C118.588 2.20835 118.547 2.1565 118.492 2.15624C117.007 2.14934 115.521 2.16888 114.037 2.15287Z" fill="#181818"/>
<path opacity="0.23" d="M31.833 20.634C31.8427 20.4608 31.8717 20.2908 31.9331 20.1284L31.8696 20.3941C32.3203 20.4984 32.7872 20.4274 33.2455 20.4457C34.4763 20.4629 35.7113 20.4134 36.9409 20.4705L37.0324 20.4877C36.5967 20.5608 36.1545 20.5189 35.7167 20.5253C34.5354 20.5372 33.3542 20.5253 32.173 20.5286C32.088 20.5544 31.918 20.6071 31.833 20.634Z" fill="#101010"/>
<path opacity="0.22" d="M12.6935 20.4482C12.7204 20.3912 12.7753 20.2782 12.8032 20.2212C12.7936 20.2943 12.7753 20.4417 12.7656 20.5149C10.5333 20.5429 8.29882 20.5267 6.06543 20.5246L6.0665 20.4439C8.27515 20.4525 10.4849 20.4439 12.6935 20.4482Z" fill="#0E0E0E"/>
<path opacity="0.22" d="M56.998 20.5034C57.0163 20.4948 57.0518 20.4787 57.0701 20.4701C58.7473 20.4292 60.4298 20.4432 62.1081 20.4636C61.6423 20.5927 61.1539 20.5013 60.6784 20.5293C59.4519 20.5142 58.2223 20.5594 56.998 20.5034Z" fill="#581515"/>
<path opacity="0.22" d="M65.9448 20.4657C67.6478 20.4367 69.3519 20.4496 71.056 20.4582C71.0205 20.4743 70.9495 20.5066 70.914 20.5227C69.4111 20.541 67.906 20.5217 66.4031 20.5356C66.245 20.5421 66.0933 20.5109 65.9448 20.4657Z" fill="#581515"/>
<path opacity="0.22" d="M72.3389 20.4632C74.0526 20.4427 75.7675 20.4384 77.4812 20.4653C77.3285 20.5126 77.1703 20.5406 77.0122 20.5363C75.6126 20.5266 74.2129 20.532 72.8133 20.5309C72.6509 20.5299 72.4938 20.4997 72.3389 20.4632Z" fill="#581515"/>
<path opacity="0.21" d="M38.6102 24.3709C40.1917 24.3042 41.7774 24.3623 43.3599 24.3419C63.8366 24.344 84.3143 24.3408 104.791 24.3419C113.135 24.3483 121.479 24.33 129.822 24.3526C129.853 27.1261 129.836 29.9028 129.83 32.6773C127.293 32.73 124.755 32.6859 122.217 32.701C92.996 32.6934 63.7752 32.7106 34.5534 32.6934L34.5513 32.5891C66.2872 32.5923 98.0243 32.5945 129.76 32.588C129.761 29.8716 129.759 27.1562 129.761 24.4398C100.317 24.4312 70.8733 24.4387 41.4299 24.4366C40.5209 24.4226 39.6097 24.4645 38.7028 24.4161L38.6102 24.3709Z" fill="#131313"/>
<path d="M63.2253 25.3603C63.4932 25.2054 63.8794 25.3872 63.9084 25.6992C64.002 26.0165 63.7546 26.4092 63.4006 26.3554C62.9251 26.3221 62.8391 25.5733 63.2253 25.3603Z" fill="white"/>
<path d="M76.5785 25.3566C76.8539 25.1974 77.2541 25.4018 77.252 25.7321C77.3208 26.0419 77.0863 26.4238 76.7356 26.3507C76.2633 26.3055 76.1751 25.5653 76.5785 25.3566Z" fill="white"/>
<path d="M43.0239 26.9268C43.3295 26.9225 43.6361 26.9236 43.9427 26.9343C44.2321 27.8939 44.529 28.8514 44.8507 29.8003C45.1325 28.8385 45.4359 27.8821 45.7339 26.9246C46.0222 26.9246 46.3105 26.9257 46.5999 26.9289C46.19 28.207 45.7027 29.4592 45.2939 30.7384C44.9797 30.7631 44.6645 30.762 44.3515 30.7405C43.9319 29.4614 43.4435 28.2059 43.0239 26.9268Z" fill="white"/>
<path d="M47.8601 27.0584C48.5174 26.7711 49.406 26.8163 49.9074 27.379C50.3409 27.8641 50.3678 28.5494 50.3603 29.1659C49.4889 29.1917 48.6153 29.1648 47.7439 29.1809C47.8526 29.5607 48.1183 29.9512 48.5389 30.0082C48.9736 30.1094 49.3996 29.9028 49.7094 29.6102C49.8364 29.7995 50.1139 29.9555 50.1301 30.1857C49.5265 30.8743 48.3991 31.0141 47.6396 30.5063C46.5143 29.7145 46.6068 27.6813 47.8601 27.0584ZM47.7246 28.5354C48.3399 28.5387 48.9542 28.5376 49.5696 28.5354C49.5448 28.0954 49.2468 27.6619 48.7799 27.6275C48.2291 27.5414 47.8009 28.0298 47.7246 28.5354Z" fill="white"/>
<path d="M51.2788 26.9251C51.5661 26.9251 51.8544 26.9251 52.1438 26.924C52.1459 27.1402 52.1459 27.3576 52.1438 27.5749C52.4009 27.1564 52.8377 26.8756 53.3369 26.8691C53.339 27.1747 53.339 27.4813 53.339 27.7879C52.8086 27.7535 52.2524 28.0816 52.176 28.6367C52.1126 29.3392 52.1631 30.046 52.1491 30.7507C51.8576 30.755 51.5682 30.756 51.2788 30.7539C51.2788 29.478 51.2788 28.201 51.2788 26.9251Z" fill="white"/>
<path d="M55.2982 26.9122C55.9555 26.8036 56.6989 27.0187 57.1002 27.5749C57.6241 28.3065 57.6198 29.3737 57.1045 30.1084C56.4181 31.0476 54.8098 31.0455 54.1331 30.0966C53.6576 29.4242 53.6328 28.4797 54.0201 27.761C54.2762 27.292 54.771 26.9778 55.2982 26.9122ZM55.2132 27.7944C54.4365 28.1903 54.4354 29.4866 55.1906 29.9083C55.5467 30.0751 56.0265 30.0256 56.2965 29.7201C56.7096 29.2596 56.7182 28.4926 56.3234 28.0181C56.0599 27.7062 55.5768 27.6061 55.2132 27.7944Z" fill="white"/>
<path d="M58.4353 26.9227C58.7183 26.9238 59.0012 26.9238 59.2852 26.9227C59.2863 27.1325 59.2863 27.3412 59.2895 27.552C59.7198 26.8861 60.6956 26.658 61.3508 27.1185C61.6778 27.367 61.8489 27.7769 61.8542 28.1814C61.8693 29.0388 61.8542 29.8951 61.8607 30.7526C61.5681 30.7536 61.2765 30.7536 60.9861 30.7536C60.9656 29.9511 61.0226 29.1442 60.957 28.3449C60.8451 27.7564 60.0394 27.6112 59.6392 27.9974C59.3433 28.261 59.31 28.6806 59.2906 29.0506C59.2788 29.6187 59.2917 30.1856 59.2863 30.7536C59.0012 30.7536 58.7172 30.7536 58.4332 30.7536C58.431 29.4767 58.4267 28.1997 58.4353 26.9227Z" fill="white"/>
<path d="M63.0076 26.9167C63.2927 26.9231 63.5789 26.9242 63.865 26.9242C63.8639 28.2001 63.8639 29.475 63.8661 30.7509C63.5767 30.752 63.2884 30.753 63.0011 30.7541C63.0001 29.475 62.9882 28.1958 63.0076 26.9167Z" fill="white"/>
<path d="M65.68 27.1272C66.461 26.6818 67.539 26.8625 68.107 27.5715C67.9338 27.7651 67.7573 27.9544 67.582 28.1449C67.2205 27.7533 66.5858 27.5607 66.121 27.8856C65.6176 28.2686 65.5821 29.0593 65.8887 29.5757C66.2717 30.1781 67.2044 30.0651 67.6035 29.5348C67.7832 29.6961 67.9628 29.8575 68.1436 30.02C67.5303 31.0118 65.9027 31.0882 65.2098 30.148C64.5611 29.2422 64.6859 27.7404 65.68 27.1272Z" fill="white"/>
<path d="M68.8244 27.3377C69.4795 26.9354 70.3025 26.7364 71.048 26.9903C71.5074 27.1473 71.8043 27.6089 71.8194 28.0854C71.8377 28.9687 71.8355 29.853 71.8528 30.7363C71.5591 30.7567 71.2643 30.7578 70.9717 30.7502C70.9727 30.6523 70.977 30.4566 70.9792 30.3587C70.4983 30.86 69.6495 30.9805 69.0729 30.5792C68.4274 30.1284 68.4457 28.9482 69.1934 28.6094C69.7517 28.3361 70.395 28.5007 70.9921 28.4534C70.9674 28.1812 70.905 27.8455 70.6123 27.7401C70.1035 27.5185 69.5763 27.7885 69.1094 27.9843C69.0094 27.7702 68.9136 27.5551 68.8244 27.3377ZM69.6678 29.9778C70.252 30.3081 71.1384 29.8143 70.9824 29.0967C70.5693 29.1053 70.153 29.0623 69.7442 29.1268C69.3537 29.2258 69.3472 29.7917 69.6678 29.9778Z" fill="white"/>
<path d="M73.3405 27.0401C74.0064 26.7281 74.824 26.8723 75.4157 27.2843C75.3071 27.508 75.2016 27.7329 75.0962 27.9577C74.7057 27.7835 74.284 27.5296 73.8429 27.6458C73.6202 27.6834 73.4739 27.9932 73.6761 28.1514C74.0494 28.4365 74.5529 28.4504 74.9445 28.7065C75.6266 29.0712 75.6061 30.2083 74.9413 30.5816C74.1979 31.0044 73.2135 30.8107 72.582 30.2685C72.6821 30.0491 72.7832 29.8285 72.879 29.6058C73.305 29.9017 73.8364 30.1771 74.3668 30.0265C74.6271 29.9651 74.6508 29.566 74.4443 29.4337C73.9806 29.1572 73.3695 29.1422 72.9941 28.7215C72.5928 28.2159 72.7348 27.3273 73.3405 27.0401Z" fill="white"/>
<path d="M76.3233 26.9275C76.6149 26.921 76.9075 26.9232 77.2012 26.9383C77.1786 28.212 77.2034 29.4847 77.1872 30.7574C76.8989 30.7552 76.6106 30.7541 76.3223 30.7531C76.3255 29.4772 76.3244 28.2023 76.3233 26.9275Z" fill="white"/>
<path d="M78.4725 26.9229C78.7543 26.9229 79.0373 26.9229 79.3202 26.9207C79.3256 27.1327 79.3299 27.3446 79.3331 27.5565C79.7226 26.8939 80.651 26.6851 81.3051 27.0681C81.7117 27.3295 81.8957 27.8287 81.8871 28.2967C81.8882 29.1154 81.886 29.934 81.886 30.7527C81.5956 30.7527 81.3051 30.7527 81.0157 30.7527C81.0071 30.0061 81.0265 29.2595 81.0082 28.514C81.0028 28.1332 80.6843 27.7652 80.2885 27.7868C79.7635 27.7287 79.3525 28.2225 79.3417 28.7152C79.3084 29.394 79.3385 30.0739 79.3278 30.7527C79.0416 30.7527 78.7565 30.7527 78.4725 30.7527C78.4714 29.4758 78.4714 28.1999 78.4725 26.9229Z" fill="white"/>
<path d="M83.332 27.0678C83.9979 26.7192 84.8112 26.886 85.4309 27.2582C85.3513 27.4981 85.262 27.7369 85.1286 27.9521C84.7187 27.7982 84.2851 27.5013 83.8344 27.6659C83.5837 27.7176 83.559 28.1253 83.7924 28.2189C84.2217 28.4631 84.7542 28.4964 85.1382 28.8267C85.6815 29.2828 85.5772 30.2639 84.9521 30.5996C84.2174 31.0073 83.2932 30.7943 82.6445 30.3177C82.6972 30.0649 82.8091 29.8336 82.9307 29.6077C83.332 29.9186 83.8548 30.1596 84.3723 30.0423C84.652 29.9961 84.7219 29.6163 84.4992 29.456C84.0947 29.1828 83.5611 29.1709 83.1771 28.86C82.6015 28.4254 82.7069 27.4088 83.332 27.0678Z" fill="white"/>
<path d="M86.2546 26.9266C86.544 26.9255 86.8345 26.9255 87.125 26.9244C87.182 27.7345 87.0841 28.5468 87.1755 29.3536C87.253 29.8614 87.906 30.054 88.3062 29.7872C88.6645 29.5688 88.7581 29.1137 88.7731 28.7253C88.7796 28.125 88.7699 27.5247 88.7742 26.9255C89.0571 26.9255 89.3401 26.9255 89.6241 26.9244C89.6564 28.1982 89.6273 29.473 89.6392 30.7479C89.3508 30.7554 89.0614 30.7565 88.7742 30.7554C88.772 30.5499 88.7731 30.3455 88.7753 30.1411C88.4052 30.7199 87.6317 30.9856 86.9959 30.7005C86.4741 30.4875 86.26 29.8894 86.2503 29.3654C86.2482 28.5521 86.245 27.7388 86.2546 26.9266Z" fill="white"/>
<path d="M90.9303 26.9255C91.2143 26.9266 91.4983 26.9266 91.7834 26.9266C91.7845 27.1331 91.7845 27.3397 91.7899 27.5473C92.0578 27.1934 92.43 26.8954 92.8926 26.8771C93.1357 27.0944 92.97 27.5086 92.9636 27.8001C92.4472 27.7496 91.9071 28.082 91.8265 28.6134C91.7329 29.3224 91.8092 30.0432 91.7845 30.7565C91.4983 30.7565 91.2132 30.7565 90.9282 30.7565C90.9282 29.4795 90.9239 28.2025 90.9303 26.9255Z" fill="white"/>
<path d="M93.5363 27.3809C94.1603 26.9022 95.0274 26.7473 95.7761 26.9926C96.2721 27.1658 96.5529 27.6864 96.5518 28.1942C96.569 29.0462 96.5529 29.8993 96.5593 30.7514C96.2742 30.7524 95.9913 30.7524 95.7084 30.7514C95.7073 30.6492 95.7051 30.4458 95.7041 30.3436C95.2339 30.8589 94.3808 30.9816 93.8031 30.5846C93.1673 30.15 93.1576 29.0193 93.8558 28.6396C94.4206 28.3244 95.0909 28.4997 95.7051 28.4535C95.7008 28.1824 95.6266 27.8607 95.349 27.7467C94.8391 27.5122 94.3044 27.7833 93.8365 27.9844C93.7418 27.78 93.6418 27.5789 93.5363 27.3809ZM94.2259 29.2388C94.1743 29.4723 94.1054 29.7799 94.3378 29.9424C94.9058 30.3383 95.8773 29.8337 95.6976 29.0957C95.207 29.1258 94.6767 28.9924 94.2259 29.2388Z" fill="white"/>
<path d="M97.7193 26.9221C98.0001 26.9231 98.2809 26.9231 98.5638 26.9231C98.567 27.134 98.5713 27.3459 98.5757 27.5579C98.9522 26.8844 99.8935 26.6897 100.543 27.0684C100.949 27.3276 101.127 27.8268 101.123 28.2916C101.123 29.1113 101.122 29.9321 101.122 30.7519C100.833 30.753 100.543 30.753 100.255 30.753C100.245 30.0053 100.27 29.2587 100.244 28.5121C100.236 28.1366 99.9279 27.7698 99.5353 27.787C99.0081 27.7214 98.5886 28.2173 98.5778 28.7133C98.552 29.3921 98.5778 30.0731 98.567 30.753C98.2766 30.753 97.9872 30.753 97.6978 30.7487C97.686 29.4728 97.6892 28.1969 97.7193 26.9221Z" fill="white"/>
<path d="M102.328 27.5529C102.986 26.6525 104.54 26.6675 105.189 27.5669C105.1 27.8047 104.855 27.9531 104.69 28.1403C104.341 27.767 103.737 27.5691 103.279 27.8617C102.689 28.2683 102.657 29.2215 103.133 29.7271C103.562 30.1617 104.33 30.0154 104.694 29.5668C104.907 29.6895 105.085 29.8616 105.26 30.0337C104.63 31.0192 102.993 31.0902 102.311 30.1262C101.796 29.3786 101.798 28.292 102.328 27.5529Z" fill="white"/>
<path d="M106.026 27.7007C106.556 26.7755 108.013 26.6023 108.752 27.3597C109.192 27.8502 109.243 28.5495 109.235 29.1778C108.362 29.1853 107.49 29.1756 106.617 29.1832C106.704 29.5253 106.912 29.8749 107.273 29.9793C107.737 30.1417 108.237 29.9448 108.574 29.6135C108.696 29.8028 109.017 29.9696 108.968 30.2106C108.25 31.0346 106.754 31.026 106.101 30.1245C105.617 29.4241 105.599 28.4312 106.026 27.7007ZM106.588 28.5388C107.204 28.5441 107.819 28.5409 108.434 28.5409C108.409 28.1267 108.146 27.7029 107.708 27.6437C107.144 27.5071 106.659 28.0105 106.588 28.5388Z" fill="white"/>
<path d="M111.837 27.6048C112.494 26.6345 114.063 26.67 114.773 27.564C114.607 27.7651 114.427 27.9534 114.242 28.1352C113.875 27.7501 113.243 27.5586 112.78 27.8888C112.199 28.3514 112.208 29.3982 112.814 29.8382C113.283 30.133 113.928 29.9555 114.266 29.537C114.442 29.6897 114.627 29.835 114.781 30.0125C114.317 30.8742 113.023 31.0388 112.248 30.503C111.359 29.8619 111.257 28.4816 111.837 27.6048Z" fill="white"/>
<path d="M116.575 26.9601C117.253 26.7772 118.061 26.9213 118.532 27.4754C119.136 28.1865 119.155 29.316 118.637 30.0798C117.99 31.0136 116.444 31.0545 115.723 30.1896C114.889 29.1955 115.216 27.3 116.575 26.9601ZM116.682 27.8153C116.122 28.1391 116.022 28.9384 116.296 29.4839C116.524 30.011 117.285 30.1702 117.718 29.8044C118.175 29.4344 118.216 28.733 117.982 28.2284C117.771 27.7486 117.132 27.555 116.682 27.8153Z" fill="white"/>
<path d="M119.931 26.9207C120.224 26.9239 120.517 26.9239 120.81 26.925C120.808 27.1208 120.806 27.3155 120.805 27.5124C121.161 26.9874 121.845 26.7572 122.451 26.9401C122.846 27.0315 123.086 27.3898 123.263 27.7276C123.54 26.8981 124.674 26.627 125.348 27.1305C125.689 27.4091 125.834 27.8674 125.837 28.2967C125.84 29.1154 125.838 29.9351 125.835 30.7549C125.542 30.7538 125.25 30.7538 124.959 30.7528C124.958 30.0406 124.961 29.3295 124.96 28.6194C124.968 28.3591 124.868 28.0901 124.67 27.9201C124.327 27.6706 123.79 27.7588 123.548 28.1073C123.417 28.2827 123.34 28.4968 123.335 28.7173C123.31 29.394 123.346 30.0729 123.317 30.7506C123.026 30.7528 122.736 30.7538 122.448 30.7517C122.407 29.9696 122.466 29.1853 122.417 28.4043C122.386 28.0525 122.063 27.7491 121.703 27.7814C121.194 27.7523 120.822 28.2504 120.815 28.7238C120.8 29.3994 120.814 30.0761 120.81 30.7528C120.516 30.7528 120.222 30.7538 119.929 30.7549C119.927 29.4769 119.922 28.1988 119.931 26.9207Z" fill="white"/>
<path d="M110.108 29.8519C110.384 29.6324 110.815 29.8863 110.813 30.223C110.87 30.5221 110.632 30.8997 110.295 30.8265C109.851 30.7814 109.755 30.0789 110.108 29.8519Z" fill="white"/>
</svg>
